<mxfile host="app.diagrams.net" agent="Mozilla/5.0 (Windows NT 10.0; Win64; x64) AppleWebKit/537.36 (KHTML, like Gecko) Chrome/130.0.0.0 Safari/537.36" version="24.8.0">
  <diagram name="Page-1" id="2YBvvXClWsGukQMizWep">
    <mxGraphModel dx="1674" dy="772" grid="1" gridSize="10" guides="1" tooltips="1" connect="1" arrows="1" fold="1" page="1" pageScale="1" pageWidth="850" pageHeight="1100" math="0" shadow="0">
      <root>
        <mxCell id="0" />
        <mxCell id="1" parent="0" />
        <mxCell id="_PFN1VRpG02VQ1066Kdm-73" value="" style="endArrow=none;dashed=1;html=1;rounded=0;" edge="1" parent="1" source="_PFN1VRpG02VQ1066Kdm-84" target="_PFN1VRpG02VQ1066Kdm-72">
          <mxGeometry width="50" height="50" relative="1" as="geometry">
            <mxPoint x="125" y="510" as="sourcePoint" />
            <mxPoint x="125" y="359.9999999999999" as="targetPoint" />
          </mxGeometry>
        </mxCell>
        <mxCell id="_PFN1VRpG02VQ1066Kdm-11" value="Usuário" style="shape=umlActor;verticalLabelPosition=bottom;verticalAlign=top;html=1;outlineConnect=0;" vertex="1" parent="1">
          <mxGeometry x="110" y="30" width="30" height="60" as="geometry" />
        </mxCell>
        <mxCell id="_PFN1VRpG02VQ1066Kdm-12" value="" style="endArrow=none;dashed=1;html=1;rounded=0;" edge="1" parent="1" source="aM9ryv3xv72pqoxQDRHE-2">
          <mxGeometry width="50" height="50" relative="1" as="geometry">
            <mxPoint x="125" y="310" as="sourcePoint" />
            <mxPoint x="125" y="90" as="targetPoint" />
          </mxGeometry>
        </mxCell>
        <mxCell id="_PFN1VRpG02VQ1066Kdm-22" value="" style="endArrow=none;dashed=1;html=1;rounded=0;" edge="1" parent="1" source="_PFN1VRpG02VQ1066Kdm-72" target="aM9ryv3xv72pqoxQDRHE-2">
          <mxGeometry width="50" height="50" relative="1" as="geometry">
            <mxPoint x="125" y="510" as="sourcePoint" />
            <mxPoint x="125" y="90" as="targetPoint" />
          </mxGeometry>
        </mxCell>
        <mxCell id="_PFN1VRpG02VQ1066Kdm-26" value="1: solicitarCriaçãoConta()" style="edgeStyle=elbowEdgeStyle;rounded=0;orthogonalLoop=1;jettySize=auto;html=1;elbow=vertical;curved=0;" edge="1" parent="1">
          <mxGeometry relative="1" as="geometry">
            <mxPoint x="130" y="169.8571428571429" as="sourcePoint" />
            <mxPoint x="330" y="169.8571428571429" as="targetPoint" />
          </mxGeometry>
        </mxCell>
        <mxCell id="aM9ryv3xv72pqoxQDRHE-2" value="" style="html=1;points=[];perimeter=orthogonalPerimeter;outlineConnect=0;targetShapes=umlLifeline;portConstraint=eastwest;newEdgeStyle={&quot;edgeStyle&quot;:&quot;elbowEdgeStyle&quot;,&quot;elbow&quot;:&quot;vertical&quot;,&quot;curved&quot;:0,&quot;rounded&quot;:0};" parent="1" vertex="1">
          <mxGeometry x="120" y="150" width="10" height="40" as="geometry" />
        </mxCell>
        <mxCell id="_PFN1VRpG02VQ1066Kdm-23" value="Sistema" style="shape=umlActor;verticalLabelPosition=bottom;verticalAlign=top;html=1;outlineConnect=0;" vertex="1" parent="1">
          <mxGeometry x="320" y="30" width="30" height="60" as="geometry" />
        </mxCell>
        <mxCell id="_PFN1VRpG02VQ1066Kdm-24" value="" style="endArrow=none;dashed=1;html=1;rounded=0;" edge="1" parent="1" source="_PFN1VRpG02VQ1066Kdm-40">
          <mxGeometry width="50" height="50" relative="1" as="geometry">
            <mxPoint x="335" y="530" as="sourcePoint" />
            <mxPoint x="335" y="90" as="targetPoint" />
          </mxGeometry>
        </mxCell>
        <mxCell id="_PFN1VRpG02VQ1066Kdm-25" value="" style="html=1;points=[];perimeter=orthogonalPerimeter;outlineConnect=0;targetShapes=umlLifeline;portConstraint=eastwest;newEdgeStyle={&quot;edgeStyle&quot;:&quot;elbowEdgeStyle&quot;,&quot;elbow&quot;:&quot;vertical&quot;,&quot;curved&quot;:0,&quot;rounded&quot;:0};" vertex="1" parent="1">
          <mxGeometry x="330" y="150" width="10" height="40" as="geometry" />
        </mxCell>
        <mxCell id="_PFN1VRpG02VQ1066Kdm-27" value="2: enviaDados(dados)" style="edgeStyle=elbowEdgeStyle;rounded=0;orthogonalLoop=1;jettySize=auto;html=1;elbow=vertical;curved=0;" edge="1" parent="1">
          <mxGeometry relative="1" as="geometry">
            <mxPoint x="130" y="239.9989655172414" as="sourcePoint" />
            <mxPoint x="329.9999999999998" y="239.9989655172414" as="targetPoint" />
          </mxGeometry>
        </mxCell>
        <mxCell id="_PFN1VRpG02VQ1066Kdm-28" value="" style="html=1;points=[];perimeter=orthogonalPerimeter;outlineConnect=0;targetShapes=umlLifeline;portConstraint=eastwest;newEdgeStyle={&quot;edgeStyle&quot;:&quot;elbowEdgeStyle&quot;,&quot;elbow&quot;:&quot;vertical&quot;,&quot;curved&quot;:0,&quot;rounded&quot;:0};" vertex="1" parent="1">
          <mxGeometry x="120" y="230" width="10" height="40" as="geometry" />
        </mxCell>
        <mxCell id="_PFN1VRpG02VQ1066Kdm-38" value="5: verificaContaExiste(dados)" style="edgeStyle=elbowEdgeStyle;rounded=0;orthogonalLoop=1;jettySize=auto;html=1;elbow=vertical;curved=0;" edge="1" parent="1" source="_PFN1VRpG02VQ1066Kdm-29" target="_PFN1VRpG02VQ1066Kdm-37">
          <mxGeometry relative="1" as="geometry" />
        </mxCell>
        <mxCell id="_PFN1VRpG02VQ1066Kdm-33" value="BancoDados" style="shape=umlActor;verticalLabelPosition=bottom;verticalAlign=top;html=1;outlineConnect=0;" vertex="1" parent="1">
          <mxGeometry x="550" y="30" width="30" height="60" as="geometry" />
        </mxCell>
        <mxCell id="_PFN1VRpG02VQ1066Kdm-34" value="" style="endArrow=none;dashed=1;html=1;rounded=0;" edge="1" parent="1" source="_PFN1VRpG02VQ1066Kdm-37">
          <mxGeometry width="50" height="50" relative="1" as="geometry">
            <mxPoint x="565" y="500" as="sourcePoint" />
            <mxPoint x="565" y="90" as="targetPoint" />
          </mxGeometry>
        </mxCell>
        <mxCell id="_PFN1VRpG02VQ1066Kdm-42" value="" style="endArrow=none;dashed=1;html=1;rounded=0;" edge="1" parent="1">
          <mxGeometry width="50" height="50" relative="1" as="geometry">
            <mxPoint x="330" y="550" as="sourcePoint" />
            <mxPoint x="330" y="590" as="targetPoint" />
          </mxGeometry>
        </mxCell>
        <mxCell id="_PFN1VRpG02VQ1066Kdm-40" value="" style="html=1;points=[];perimeter=orthogonalPerimeter;outlineConnect=0;targetShapes=umlLifeline;portConstraint=eastwest;newEdgeStyle={&quot;edgeStyle&quot;:&quot;elbowEdgeStyle&quot;,&quot;elbow&quot;:&quot;vertical&quot;,&quot;curved&quot;:0,&quot;rounded&quot;:0};" vertex="1" parent="1">
          <mxGeometry x="330" y="520" width="10" height="100" as="geometry" />
        </mxCell>
        <mxCell id="_PFN1VRpG02VQ1066Kdm-52" value="Cria usuário" style="endArrow=block;endFill=1;html=1;edgeStyle=orthogonalEdgeStyle;align=left;verticalAlign=top;rounded=0;" edge="1" parent="1">
          <mxGeometry x="-0.1111" relative="1" as="geometry">
            <mxPoint x="340" y="555" as="sourcePoint" />
            <mxPoint x="340" y="585" as="targetPoint" />
            <Array as="points">
              <mxPoint x="365" y="555" />
              <mxPoint x="365" y="585" />
            </Array>
            <mxPoint as="offset" />
          </mxGeometry>
        </mxCell>
        <mxCell id="_PFN1VRpG02VQ1066Kdm-55" value="Usuário criado" style="endArrow=open;endSize=12;dashed=1;html=1;rounded=0;" edge="1" parent="1">
          <mxGeometry width="160" relative="1" as="geometry">
            <mxPoint x="329.9999999999998" y="609.9999999999999" as="sourcePoint" />
            <mxPoint x="130" y="610" as="targetPoint" />
            <mxPoint as="offset" />
          </mxGeometry>
        </mxCell>
        <mxCell id="_PFN1VRpG02VQ1066Kdm-56" value="" style="html=1;points=[];perimeter=orthogonalPerimeter;outlineConnect=0;targetShapes=umlLifeline;portConstraint=eastwest;newEdgeStyle={&quot;edgeStyle&quot;:&quot;elbowEdgeStyle&quot;,&quot;elbow&quot;:&quot;vertical&quot;,&quot;curved&quot;:0,&quot;rounded&quot;:0};" vertex="1" parent="1">
          <mxGeometry x="120" y="590" width="10" height="40" as="geometry" />
        </mxCell>
        <mxCell id="_PFN1VRpG02VQ1066Kdm-37" value="" style="html=1;points=[];perimeter=orthogonalPerimeter;outlineConnect=0;targetShapes=umlLifeline;portConstraint=eastwest;newEdgeStyle={&quot;edgeStyle&quot;:&quot;elbowEdgeStyle&quot;,&quot;elbow&quot;:&quot;vertical&quot;,&quot;curved&quot;:0,&quot;rounded&quot;:0};" vertex="1" parent="1">
          <mxGeometry x="560" y="350" width="10" height="110" as="geometry" />
        </mxCell>
        <mxCell id="_PFN1VRpG02VQ1066Kdm-59" value="" style="endArrow=none;dashed=1;html=1;rounded=0;" edge="1" parent="1" source="_PFN1VRpG02VQ1066Kdm-40">
          <mxGeometry width="50" height="50" relative="1" as="geometry">
            <mxPoint x="335" y="520" as="sourcePoint" />
            <mxPoint x="335" y="490" as="targetPoint" />
          </mxGeometry>
        </mxCell>
        <mxCell id="_PFN1VRpG02VQ1066Kdm-29" value="" style="html=1;points=[];perimeter=orthogonalPerimeter;outlineConnect=0;targetShapes=umlLifeline;portConstraint=eastwest;newEdgeStyle={&quot;edgeStyle&quot;:&quot;elbowEdgeStyle&quot;,&quot;elbow&quot;:&quot;vertical&quot;,&quot;curved&quot;:0,&quot;rounded&quot;:0};" vertex="1" parent="1">
          <mxGeometry x="330" y="370" width="10" height="40" as="geometry" />
        </mxCell>
        <mxCell id="_PFN1VRpG02VQ1066Kdm-61" value="" style="endArrow=none;dashed=1;html=1;rounded=0;" edge="1" parent="1" source="_PFN1VRpG02VQ1066Kdm-29">
          <mxGeometry width="50" height="50" relative="1" as="geometry">
            <mxPoint x="335" y="330" as="sourcePoint" />
            <mxPoint x="334.9999999999998" y="309.9999999999999" as="targetPoint" />
          </mxGeometry>
        </mxCell>
        <mxCell id="_PFN1VRpG02VQ1066Kdm-60" value="" style="html=1;points=[];perimeter=orthogonalPerimeter;outlineConnect=0;targetShapes=umlLifeline;portConstraint=eastwest;newEdgeStyle={&quot;edgeStyle&quot;:&quot;elbowEdgeStyle&quot;,&quot;elbow&quot;:&quot;vertical&quot;,&quot;curved&quot;:0,&quot;rounded&quot;:0};" vertex="1" parent="1">
          <mxGeometry x="330" y="230" width="10" height="90" as="geometry" />
        </mxCell>
        <mxCell id="_PFN1VRpG02VQ1066Kdm-67" value="3: ValidaDados(dados)" style="endArrow=block;endFill=1;html=1;edgeStyle=orthogonalEdgeStyle;align=left;verticalAlign=top;rounded=0;" edge="1" parent="1">
          <mxGeometry x="-0.7148" relative="1" as="geometry">
            <mxPoint x="340" y="249.66" as="sourcePoint" />
            <mxPoint x="340" y="280" as="targetPoint" />
            <Array as="points">
              <mxPoint x="390" y="250" />
              <mxPoint x="390" y="280" />
              <mxPoint x="340" y="280" />
            </Array>
            <mxPoint as="offset" />
          </mxGeometry>
        </mxCell>
        <mxCell id="_PFN1VRpG02VQ1066Kdm-69" value="4: dadosInválidos()" style="html=1;verticalAlign=bottom;endArrow=open;dashed=1;endSize=8;curved=0;rounded=0;" edge="1" parent="1" target="_PFN1VRpG02VQ1066Kdm-72">
          <mxGeometry relative="1" as="geometry">
            <mxPoint x="329.9999999999998" y="309.6599999999999" as="sourcePoint" />
            <mxPoint x="150" y="309.66" as="targetPoint" />
          </mxGeometry>
        </mxCell>
        <mxCell id="_PFN1VRpG02VQ1066Kdm-72" value="" style="html=1;points=[];perimeter=orthogonalPerimeter;outlineConnect=0;targetShapes=umlLifeline;portConstraint=eastwest;newEdgeStyle={&quot;edgeStyle&quot;:&quot;elbowEdgeStyle&quot;,&quot;elbow&quot;:&quot;vertical&quot;,&quot;curved&quot;:0,&quot;rounded&quot;:0};" vertex="1" parent="1">
          <mxGeometry x="120" y="290" width="10" height="40" as="geometry" />
        </mxCell>
        <mxCell id="_PFN1VRpG02VQ1066Kdm-74" value="alt" style="shape=umlFrame;whiteSpace=wrap;html=1;pointerEvents=0;" vertex="1" parent="1">
          <mxGeometry x="180" y="490" width="430" height="250" as="geometry" />
        </mxCell>
        <mxCell id="_PFN1VRpG02VQ1066Kdm-81" value="Não existe" style="endArrow=none;dashed=1;html=1;rounded=0;" edge="1" parent="1" source="_PFN1VRpG02VQ1066Kdm-40">
          <mxGeometry x="-0.2787" width="50" height="50" relative="1" as="geometry">
            <mxPoint x="480" y="540" as="sourcePoint" />
            <mxPoint x="564.58" y="460" as="targetPoint" />
            <Array as="points">
              <mxPoint x="540" y="540" />
              <mxPoint x="565" y="540" />
            </Array>
            <mxPoint as="offset" />
          </mxGeometry>
        </mxCell>
        <mxCell id="_PFN1VRpG02VQ1066Kdm-82" value="" style="html=1;points=[];perimeter=orthogonalPerimeter;outlineConnect=0;targetShapes=umlLifeline;portConstraint=eastwest;newEdgeStyle={&quot;edgeStyle&quot;:&quot;elbowEdgeStyle&quot;,&quot;elbow&quot;:&quot;vertical&quot;,&quot;curved&quot;:0,&quot;rounded&quot;:0};" vertex="1" parent="1">
          <mxGeometry x="330" y="660" width="10" height="40" as="geometry" />
        </mxCell>
        <mxCell id="_PFN1VRpG02VQ1066Kdm-83" value="Existe" style="endArrow=none;dashed=1;html=1;rounded=0;" edge="1" parent="1">
          <mxGeometry x="-0.5056" width="50" height="50" relative="1" as="geometry">
            <mxPoint x="340" y="680" as="sourcePoint" />
            <mxPoint x="564.9999999999998" y="459.9999999999999" as="targetPoint" />
            <Array as="points">
              <mxPoint x="565" y="680" />
              <mxPoint x="565" y="620" />
              <mxPoint x="565" y="550" />
            </Array>
            <mxPoint as="offset" />
          </mxGeometry>
        </mxCell>
        <mxCell id="_PFN1VRpG02VQ1066Kdm-84" value="" style="html=1;points=[];perimeter=orthogonalPerimeter;outlineConnect=0;targetShapes=umlLifeline;portConstraint=eastwest;newEdgeStyle={&quot;edgeStyle&quot;:&quot;elbowEdgeStyle&quot;,&quot;elbow&quot;:&quot;vertical&quot;,&quot;curved&quot;:0,&quot;rounded&quot;:0};" vertex="1" parent="1">
          <mxGeometry x="120" y="660" width="10" height="40" as="geometry" />
        </mxCell>
        <mxCell id="_PFN1VRpG02VQ1066Kdm-87" value="Usuário já existe" style="endArrow=open;endSize=12;dashed=1;html=1;rounded=0;" edge="1" parent="1">
          <mxGeometry width="160" relative="1" as="geometry">
            <mxPoint x="329.9999999999998" y="689.9999999999999" as="sourcePoint" />
            <mxPoint x="130" y="690" as="targetPoint" />
            <mxPoint as="offset" />
          </mxGeometry>
        </mxCell>
      </root>
    </mxGraphModel>
  </diagram>
</mxfile>
